<svg width="16" height="16" viewBox="0 0 16 16" fill="none" xmlns="http://www.w3.org/2000/svg">
<circle cx="8" cy="8" r="8" fill="white"/>
<path d="M7.252 9.04791L8.74 9.57591L8.944 3.50391H7.036L7.252 9.04791ZM7.996 10.0199C7.716 10.0199 7.48 10.1159 7.288 10.3079C7.096 10.4999 7 10.7359 7 11.0159C7 11.2959 7.096 11.5319 7.288 11.7239C7.48 11.9079 7.716 11.9999 7.996 11.9999C8.268 11.9999 8.5 11.9079 8.692 11.7239C8.884 11.5319 8.98 11.2959 8.98 11.0159C8.98 10.7359 8.884 10.4999 8.692 10.3079C8.5 10.1159 8.268 10.0199 7.996 10.0199Z" fill="#EE3737"/>
</svg>
