<svg width="24" height="25" fill="none" xmlns="http://www.w3.org/2000/svg" id="searchIcon">
<path fill-rule="evenodd" clip-rule="evenodd" d="M8.87422 18.2932C12.6632 20.8382 17.8068 20.4101 21.1401 17.0089C24.9533 13.1178 24.9533 6.80927 21.1401 2.91826C17.3268 -0.972755 11.1444 -0.972751 7.33111 2.91826C3.82309 6.49781 3.5423 12.1234 6.48873 16.0305L0.476655 22.1652C-0.158885 22.8137 -0.158885 23.8651 0.476655 24.5136C1.11219 25.1621 2.14261 25.1621 2.77815 24.5136L8.87422 18.2932ZM18.8386 14.6604C16.2964 17.2544 12.1748 17.2544 9.6326 14.6604C7.09044 12.0664 7.09044 7.8607 9.6326 5.26669C12.1748 2.67269 16.2964 2.67269 18.8386 5.26669C21.3807 7.8607 21.3807 12.0664 18.8386 14.6604Z" fill="currentColor"/>
</svg>
