<?xml version="1.0" encoding="UTF-8"?>
<svg xmlns="http://www.w3.org/2000/svg" xmlns:xlink="http://www.w3.org/1999/xlink" width="16px" height="16px" viewBox="0 0 16 16" version="1.1">
<g id="surface1">
<path style=" stroke:none;fill-rule:nonzero;fill:white;fill-opacity:1;" d="M 8 16 C 12.417969 16 16 12.417969 16 8 C 16 3.582031 12.417969 0 8 0 C 3.582031 0 0 3.582031 0 8 C 0 12.417969 3.582031 16 8 16 Z M 11.53125 6.53125 L 7.53125 10.53125 C 7.238281 10.824219 6.761719 10.824219 6.472656 10.53125 L 4.472656 8.53125 C 4.179688 8.238281 4.179688 7.761719 4.472656 7.472656 C 4.765625 7.179688 5.242188 7.179688 5.53125 7.472656 L 7 8.941406 L 10.46875 5.46875 C 10.761719 5.175781 11.238281 5.175781 11.527344 5.46875 C 11.820312 5.761719 11.820312 6.238281 11.527344 6.527344 Z M 11.53125 6.53125 "/>
</g>
</svg>
